<?xml version="1.0" encoding="UTF-8"?> <svg xmlns="http://www.w3.org/2000/svg" width="120" height="23" viewBox="0 0 120 23" fill="none"><g clip-path="url(#clip0_11959_27221)"><path d="M106.212 8.61733C106.397 4.616 107.813 2.154 110.921 2.154C113.783 2.154 114.521 4.37 114.521 7.232C114.521 8.37067 114.275 8.61667 113.167 8.61667H106.212V8.61733ZM44.9347 8.61733C45.1193 4.616 46.5353 2.154 49.6433 2.154C52.5053 2.154 53.244 4.37 53.244 7.232C53.244 8.37067 52.998 8.61667 51.89 8.61667H44.9347V8.61733ZM8.67933 10.8953L12.5267 3.53933C12.7727 3.078 12.988 2.73933 13.542 2.73933C14.096 2.73933 14.342 3.078 14.342 3.69333V10.8953H8.67933ZM111.044 22.1593C116.061 22.1593 119.169 19.482 120 15.05H118.215C117.384 17.6967 115.291 19.082 112.151 19.082C108.15 19.082 106.365 16.1887 106.181 10.618H119.723C119.846 10.064 119.846 9.54067 119.846 8.98667C119.846 3.93933 116.891 0.184667 110.859 0.184667C104.827 0.184667 100.795 4.24733 100.795 11.2027C100.795 18.62 105.289 22.1593 111.044 22.1593ZM90.0847 22.1593C96.086 22.1593 98.7947 19.328 98.7947 14.2807V0.308H93.6547V16.22C93.6547 18.9593 92.208 20.1593 90.0847 20.1593C87.9613 20.1593 86.484 18.9593 86.484 16.22V0.308H81.344V14.2807C81.344 19.328 84.0833 22.1593 90.0847 22.1593ZM60.6 21.852H65.74V8.64867C65.74 5.386 67.1247 3.632 69.7413 3.632C72.358 3.632 73.7427 5.386 73.7427 8.64867V21.8213H78.8827V8.03267C78.8827 2.308 76.082 0 72.2653 0C68.1413 0 66.4793 2.64667 65.9253 3.53933C65.71 3.878 65.6487 3.878 65.4947 3.878C65.3407 3.878 65.2793 3.786 65.2793 3.60133V0.308H60.6013V21.852H60.6ZM49.7667 22.1593C54.7833 22.1593 57.892 19.482 58.7227 15.05H56.9373C56.1067 17.6967 54.0133 19.082 50.874 19.082C46.8727 19.082 45.088 16.1887 44.9033 10.618H58.4453C58.5687 10.064 58.5687 9.54067 58.5687 8.98667C58.5687 3.93933 55.614 0.184667 49.582 0.184667C43.55 0.184667 39.518 4.24733 39.518 11.2027C39.518 18.62 44.0113 22.1593 49.7667 22.1593ZM9.54067 3.69333L0 21.852H2.95467L6.27867 15.5427C7.32533 13.5727 8.402 12.8653 10.8647 12.8653H14.3427V21.852H19.4827V5.26267C19.482 1.69267 17.82 0 14.7733 0C12.1267 0 10.8033 1.29267 9.54133 3.69333H9.54067ZM26.9607 22.1593C29.6073 22.1593 30.9307 20.8667 32.1927 18.466L41.734 0.308H38.7793L29.2073 18.6207C28.9613 19.082 28.746 19.4207 28.192 19.4207C27.638 19.4207 27.392 19.082 27.392 18.4667V0.308H22.252V16.8967C22.252 20.4667 23.914 22.1593 26.9607 22.1593Z" fill="#002820"></path></g><defs><clipPath id="clip0_11959_27221"><rect width="120" height="22.1593" fill="white"></rect></clipPath></defs></svg> 